<mxfile host="app.diagrams.net" modified="2023-06-10T08:55:48.132Z" agent="Mozilla/5.0 (Macintosh; Intel Mac OS X 10_15_7) AppleWebKit/605.1.15 (KHTML, like Gecko) Version/16.5 Safari/605.1.15" etag="du08EWw_edqYZT3_uKZh" version="21.3.8" type="github">
  <diagram name="Страница 1" id="bEbsanAwFK8sd-498S7s">
    <mxGraphModel dx="954" dy="647" grid="1" gridSize="10" guides="1" tooltips="1" connect="1" arrows="1" fold="1" page="1" pageScale="1" pageWidth="827" pageHeight="1169" math="0" shadow="0">
      <root>
        <mxCell id="0" />
        <mxCell id="1" parent="0" />
        <mxCell id="6sqUFoTrAs0NfEia508A-2" value="" style="rounded=0;whiteSpace=wrap;html=1;" vertex="1" parent="1">
          <mxGeometry x="100" y="140" width="670" height="440" as="geometry" />
        </mxCell>
        <mxCell id="6sqUFoTrAs0NfEia508A-3" value="" style="rounded=0;whiteSpace=wrap;html=1;" vertex="1" parent="1">
          <mxGeometry x="100" y="170" width="670" height="30" as="geometry" />
        </mxCell>
        <mxCell id="6sqUFoTrAs0NfEia508A-7" value="" style="rounded=0;whiteSpace=wrap;html=1;" vertex="1" parent="1">
          <mxGeometry x="580" y="200" width="190" height="380" as="geometry" />
        </mxCell>
        <mxCell id="6sqUFoTrAs0NfEia508A-8" value="&lt;span style=&quot;font-weight: normal;&quot;&gt;&lt;font style=&quot;font-size: 15px;&quot;&gt;Available commands:&lt;/font&gt;&lt;/span&gt;" style="text;strokeColor=none;fillColor=none;html=1;fontSize=24;fontStyle=1;verticalAlign=middle;align=left;" vertex="1" parent="1">
          <mxGeometry x="585" y="200" width="160" height="40" as="geometry" />
        </mxCell>
        <mxCell id="6sqUFoTrAs0NfEia508A-9" value="Add element" style="rounded=1;whiteSpace=wrap;html=1;" vertex="1" parent="1">
          <mxGeometry x="590" y="250" width="150" height="40" as="geometry" />
        </mxCell>
        <mxCell id="6sqUFoTrAs0NfEia508A-10" value="" style="endArrow=none;html=1;rounded=0;exitX=0;exitY=0.105;exitDx=0;exitDy=0;exitPerimeter=0;" edge="1" parent="1" source="6sqUFoTrAs0NfEia508A-7">
          <mxGeometry width="50" height="50" relative="1" as="geometry">
            <mxPoint x="390" y="410" as="sourcePoint" />
            <mxPoint x="770" y="240" as="targetPoint" />
          </mxGeometry>
        </mxCell>
        <mxCell id="6sqUFoTrAs0NfEia508A-11" value="Add if max" style="rounded=1;whiteSpace=wrap;html=1;fontStyle=0" vertex="1" parent="1">
          <mxGeometry x="590" y="300" width="150" height="40" as="geometry" />
        </mxCell>
        <mxCell id="6sqUFoTrAs0NfEia508A-12" value="Add if min" style="rounded=1;whiteSpace=wrap;html=1;" vertex="1" parent="1">
          <mxGeometry x="590" y="350" width="150" height="40" as="geometry" />
        </mxCell>
        <mxCell id="6sqUFoTrAs0NfEia508A-13" value="Remove by id" style="rounded=1;whiteSpace=wrap;html=1;" vertex="1" parent="1">
          <mxGeometry x="590" y="400" width="150" height="40" as="geometry" />
        </mxCell>
        <mxCell id="6sqUFoTrAs0NfEia508A-14" value="Update" style="rounded=1;whiteSpace=wrap;html=1;" vertex="1" parent="1">
          <mxGeometry x="590" y="450" width="150" height="40" as="geometry" />
        </mxCell>
        <mxCell id="6sqUFoTrAs0NfEia508A-16" value="" style="rounded=0;whiteSpace=wrap;html=1;" vertex="1" parent="1">
          <mxGeometry x="750" y="240" width="20" height="340" as="geometry" />
        </mxCell>
        <mxCell id="6sqUFoTrAs0NfEia508A-17" value="" style="rounded=0;whiteSpace=wrap;html=1;fillColor=#FFFFFF;fillStyle=solid;" vertex="1" parent="1">
          <mxGeometry x="750" y="240" width="20" height="200" as="geometry" />
        </mxCell>
        <mxCell id="6sqUFoTrAs0NfEia508A-18" value="Count Greater than (distance)" style="rounded=1;whiteSpace=wrap;html=1;" vertex="1" parent="1">
          <mxGeometry x="590" y="500" width="150" height="40" as="geometry" />
        </mxCell>
        <mxCell id="6sqUFoTrAs0NfEia508A-19" value="Clear" style="rounded=1;whiteSpace=wrap;html=1;" vertex="1" parent="1">
          <mxGeometry x="590" y="550" width="150" height="30" as="geometry" />
        </mxCell>
        <mxCell id="6sqUFoTrAs0NfEia508A-20" value="Assets" style="childLayout=tableLayout;recursiveResize=0;strokeColor=#98bf21;fillColor=#A7C942;shadow=1;" vertex="1" parent="1">
          <mxGeometry x="100" y="204.5" width="460" height="145" as="geometry" />
        </mxCell>
        <mxCell id="6sqUFoTrAs0NfEia508A-21" style="shape=tableRow;horizontal=0;startSize=0;swimlaneHead=0;swimlaneBody=0;top=0;left=0;bottom=0;right=0;dropTarget=0;collapsible=0;recursiveResize=0;expand=0;fontStyle=0;strokeColor=inherit;fillColor=#ffffff;" vertex="1" parent="6sqUFoTrAs0NfEia508A-20">
          <mxGeometry width="460" height="30" as="geometry" />
        </mxCell>
        <mxCell id="6sqUFoTrAs0NfEia508A-22" value="id" style="connectable=0;recursiveResize=0;align=center;fontStyle=1;html=1;fillColor=#999999;" vertex="1" parent="6sqUFoTrAs0NfEia508A-21">
          <mxGeometry width="152" height="30" as="geometry">
            <mxRectangle width="152" height="30" as="alternateBounds" />
          </mxGeometry>
        </mxCell>
        <mxCell id="6sqUFoTrAs0NfEia508A-23" value="name" style="connectable=0;recursiveResize=0;align=center;fontStyle=1;html=1;fillColor=#999999;" vertex="1" parent="6sqUFoTrAs0NfEia508A-21">
          <mxGeometry x="152" width="156" height="30" as="geometry">
            <mxRectangle width="156" height="30" as="alternateBounds" />
          </mxGeometry>
        </mxCell>
        <mxCell id="6sqUFoTrAs0NfEia508A-24" value="coordinates.x" style="connectable=0;recursiveResize=0;align=center;fontStyle=1;html=1;fillColor=#999999;" vertex="1" parent="6sqUFoTrAs0NfEia508A-21">
          <mxGeometry x="308" width="152" height="30" as="geometry">
            <mxRectangle width="152" height="30" as="alternateBounds" />
          </mxGeometry>
        </mxCell>
        <mxCell id="6sqUFoTrAs0NfEia508A-25" value="" style="shape=tableRow;horizontal=0;startSize=0;swimlaneHead=0;swimlaneBody=0;top=0;left=0;bottom=0;right=0;dropTarget=0;collapsible=0;recursiveResize=0;expand=0;fontStyle=0;strokeColor=inherit;fillColor=#ffffff;" vertex="1" parent="6sqUFoTrAs0NfEia508A-20">
          <mxGeometry y="30" width="460" height="30" as="geometry" />
        </mxCell>
        <mxCell id="6sqUFoTrAs0NfEia508A-26" value="1" style="connectable=0;recursiveResize=0;align=center;whiteSpace=wrap;html=1;" vertex="1" parent="6sqUFoTrAs0NfEia508A-25">
          <mxGeometry width="152" height="30" as="geometry">
            <mxRectangle width="152" height="30" as="alternateBounds" />
          </mxGeometry>
        </mxCell>
        <mxCell id="6sqUFoTrAs0NfEia508A-27" value="Value 2" style="connectable=0;recursiveResize=0;align=center;whiteSpace=wrap;html=1;" vertex="1" parent="6sqUFoTrAs0NfEia508A-25">
          <mxGeometry x="152" width="156" height="30" as="geometry">
            <mxRectangle width="156" height="30" as="alternateBounds" />
          </mxGeometry>
        </mxCell>
        <mxCell id="6sqUFoTrAs0NfEia508A-28" value="32.3" style="connectable=0;recursiveResize=0;align=center;whiteSpace=wrap;html=1;" vertex="1" parent="6sqUFoTrAs0NfEia508A-25">
          <mxGeometry x="308" width="152" height="30" as="geometry">
            <mxRectangle width="152" height="30" as="alternateBounds" />
          </mxGeometry>
        </mxCell>
        <mxCell id="6sqUFoTrAs0NfEia508A-29" value="" style="shape=tableRow;horizontal=0;startSize=0;swimlaneHead=0;swimlaneBody=0;top=0;left=0;bottom=0;right=0;dropTarget=0;collapsible=0;recursiveResize=0;expand=0;fontStyle=1;strokeColor=inherit;fillColor=#EAF2D3;" vertex="1" parent="6sqUFoTrAs0NfEia508A-20">
          <mxGeometry y="60" width="460" height="27" as="geometry" />
        </mxCell>
        <mxCell id="6sqUFoTrAs0NfEia508A-30" value="2" style="connectable=0;recursiveResize=0;whiteSpace=wrap;html=1;fillColor=#CCCCCC;" vertex="1" parent="6sqUFoTrAs0NfEia508A-29">
          <mxGeometry width="152" height="27" as="geometry">
            <mxRectangle width="152" height="27" as="alternateBounds" />
          </mxGeometry>
        </mxCell>
        <mxCell id="6sqUFoTrAs0NfEia508A-31" value="Value 5" style="connectable=0;recursiveResize=0;whiteSpace=wrap;html=1;fillColor=#CCCCCC;" vertex="1" parent="6sqUFoTrAs0NfEia508A-29">
          <mxGeometry x="152" width="156" height="27" as="geometry">
            <mxRectangle width="156" height="27" as="alternateBounds" />
          </mxGeometry>
        </mxCell>
        <mxCell id="6sqUFoTrAs0NfEia508A-32" value="34.6" style="connectable=0;recursiveResize=0;whiteSpace=wrap;html=1;fillColor=#CCCCCC;" vertex="1" parent="6sqUFoTrAs0NfEia508A-29">
          <mxGeometry x="308" width="152" height="27" as="geometry">
            <mxRectangle width="152" height="27" as="alternateBounds" />
          </mxGeometry>
        </mxCell>
        <mxCell id="6sqUFoTrAs0NfEia508A-33" value="" style="shape=tableRow;horizontal=0;startSize=0;swimlaneHead=0;swimlaneBody=0;top=0;left=0;bottom=0;right=0;dropTarget=0;collapsible=0;recursiveResize=0;expand=0;fontStyle=0;strokeColor=inherit;fillColor=#ffffff;" vertex="1" parent="6sqUFoTrAs0NfEia508A-20">
          <mxGeometry y="87" width="460" height="29" as="geometry" />
        </mxCell>
        <mxCell id="6sqUFoTrAs0NfEia508A-34" value="3" style="connectable=0;recursiveResize=0;fontStyle=0;align=center;whiteSpace=wrap;html=1;" vertex="1" parent="6sqUFoTrAs0NfEia508A-33">
          <mxGeometry width="152" height="29" as="geometry">
            <mxRectangle width="152" height="29" as="alternateBounds" />
          </mxGeometry>
        </mxCell>
        <mxCell id="6sqUFoTrAs0NfEia508A-35" value="Value 8" style="connectable=0;recursiveResize=0;fontStyle=0;align=center;whiteSpace=wrap;html=1;" vertex="1" parent="6sqUFoTrAs0NfEia508A-33">
          <mxGeometry x="152" width="156" height="29" as="geometry">
            <mxRectangle width="156" height="29" as="alternateBounds" />
          </mxGeometry>
        </mxCell>
        <mxCell id="6sqUFoTrAs0NfEia508A-36" value="0.0" style="connectable=0;recursiveResize=0;fontStyle=0;align=center;whiteSpace=wrap;html=1;" vertex="1" parent="6sqUFoTrAs0NfEia508A-33">
          <mxGeometry x="308" width="152" height="29" as="geometry">
            <mxRectangle width="152" height="29" as="alternateBounds" />
          </mxGeometry>
        </mxCell>
        <mxCell id="6sqUFoTrAs0NfEia508A-37" value="" style="shape=tableRow;horizontal=0;startSize=0;swimlaneHead=0;swimlaneBody=0;top=0;left=0;bottom=0;right=0;dropTarget=0;collapsible=0;recursiveResize=0;expand=0;fontStyle=1;strokeColor=inherit;fillColor=#EAF2D3;" vertex="1" parent="6sqUFoTrAs0NfEia508A-20">
          <mxGeometry y="116" width="460" height="29" as="geometry" />
        </mxCell>
        <mxCell id="6sqUFoTrAs0NfEia508A-38" value="4" style="connectable=0;recursiveResize=0;whiteSpace=wrap;html=1;fillColor=#CCCCCC;" vertex="1" parent="6sqUFoTrAs0NfEia508A-37">
          <mxGeometry width="152" height="29" as="geometry">
            <mxRectangle width="152" height="29" as="alternateBounds" />
          </mxGeometry>
        </mxCell>
        <mxCell id="6sqUFoTrAs0NfEia508A-39" value="Value 11" style="connectable=0;recursiveResize=0;whiteSpace=wrap;html=1;fillColor=#CCCCCC;" vertex="1" parent="6sqUFoTrAs0NfEia508A-37">
          <mxGeometry x="152" width="156" height="29" as="geometry">
            <mxRectangle width="156" height="29" as="alternateBounds" />
          </mxGeometry>
        </mxCell>
        <mxCell id="6sqUFoTrAs0NfEia508A-40" value="12.01" style="connectable=0;recursiveResize=0;whiteSpace=wrap;html=1;fillColor=#CCCCCC;" vertex="1" parent="6sqUFoTrAs0NfEia508A-37">
          <mxGeometry x="308" width="152" height="29" as="geometry">
            <mxRectangle width="152" height="29" as="alternateBounds" />
          </mxGeometry>
        </mxCell>
        <mxCell id="6sqUFoTrAs0NfEia508A-41" value="Route collection manager by Zerumi" style="text;strokeColor=none;fillColor=none;html=1;fontSize=18;fontStyle=0;verticalAlign=middle;align=center;" vertex="1" parent="1">
          <mxGeometry x="110" y="140" width="660" height="30" as="geometry" />
        </mxCell>
        <mxCell id="6sqUFoTrAs0NfEia508A-42" value="5" style="connectable=0;recursiveResize=0;align=center;whiteSpace=wrap;html=1;" vertex="1" parent="1">
          <mxGeometry x="100" y="349.5" width="152" height="30" as="geometry">
            <mxRectangle width="152" height="30" as="alternateBounds" />
          </mxGeometry>
        </mxCell>
        <mxCell id="6sqUFoTrAs0NfEia508A-43" value="Value 2" style="connectable=0;recursiveResize=0;align=center;whiteSpace=wrap;html=1;" vertex="1" parent="1">
          <mxGeometry x="252" y="349.5" width="156" height="30" as="geometry">
            <mxRectangle width="156" height="30" as="alternateBounds" />
          </mxGeometry>
        </mxCell>
        <mxCell id="6sqUFoTrAs0NfEia508A-44" value="42.42" style="connectable=0;recursiveResize=0;align=center;whiteSpace=wrap;html=1;" vertex="1" parent="1">
          <mxGeometry x="408" y="349.5" width="152" height="30" as="geometry">
            <mxRectangle width="152" height="30" as="alternateBounds" />
          </mxGeometry>
        </mxCell>
        <mxCell id="6sqUFoTrAs0NfEia508A-45" value="6" style="connectable=0;recursiveResize=0;whiteSpace=wrap;html=1;fillColor=#CCCCCC;" vertex="1" parent="1">
          <mxGeometry x="100" y="379.5" width="152" height="27" as="geometry">
            <mxRectangle width="152" height="27" as="alternateBounds" />
          </mxGeometry>
        </mxCell>
        <mxCell id="6sqUFoTrAs0NfEia508A-46" value="Value 5" style="connectable=0;recursiveResize=0;whiteSpace=wrap;html=1;fillColor=#CCCCCC;" vertex="1" parent="1">
          <mxGeometry x="252" y="379.5" width="156" height="27" as="geometry">
            <mxRectangle width="156" height="27" as="alternateBounds" />
          </mxGeometry>
        </mxCell>
        <mxCell id="6sqUFoTrAs0NfEia508A-47" value="9.41" style="connectable=0;recursiveResize=0;whiteSpace=wrap;html=1;fillColor=#CCCCCC;" vertex="1" parent="1">
          <mxGeometry x="408" y="379.5" width="152" height="27" as="geometry">
            <mxRectangle width="152" height="27" as="alternateBounds" />
          </mxGeometry>
        </mxCell>
        <mxCell id="6sqUFoTrAs0NfEia508A-48" value="7" style="connectable=0;recursiveResize=0;fontStyle=0;align=center;whiteSpace=wrap;html=1;" vertex="1" parent="1">
          <mxGeometry x="100" y="406.5" width="152" height="29" as="geometry">
            <mxRectangle width="152" height="29" as="alternateBounds" />
          </mxGeometry>
        </mxCell>
        <mxCell id="6sqUFoTrAs0NfEia508A-49" value="Value 8" style="connectable=0;recursiveResize=0;fontStyle=0;align=center;whiteSpace=wrap;html=1;" vertex="1" parent="1">
          <mxGeometry x="252" y="406.5" width="156" height="29" as="geometry">
            <mxRectangle width="156" height="29" as="alternateBounds" />
          </mxGeometry>
        </mxCell>
        <mxCell id="6sqUFoTrAs0NfEia508A-50" value="8883.0" style="connectable=0;recursiveResize=0;fontStyle=0;align=center;whiteSpace=wrap;html=1;" vertex="1" parent="1">
          <mxGeometry x="408" y="406.5" width="152" height="29" as="geometry">
            <mxRectangle width="152" height="29" as="alternateBounds" />
          </mxGeometry>
        </mxCell>
        <mxCell id="6sqUFoTrAs0NfEia508A-51" value="8" style="connectable=0;recursiveResize=0;whiteSpace=wrap;html=1;fillColor=#CCCCCC;" vertex="1" parent="1">
          <mxGeometry x="100" y="435.5" width="152" height="29" as="geometry">
            <mxRectangle width="152" height="29" as="alternateBounds" />
          </mxGeometry>
        </mxCell>
        <mxCell id="6sqUFoTrAs0NfEia508A-52" value="Value 11" style="connectable=0;recursiveResize=0;whiteSpace=wrap;html=1;fillColor=#CCCCCC;" vertex="1" parent="1">
          <mxGeometry x="252" y="435.5" width="156" height="29" as="geometry">
            <mxRectangle width="156" height="29" as="alternateBounds" />
          </mxGeometry>
        </mxCell>
        <mxCell id="6sqUFoTrAs0NfEia508A-53" value="90.34" style="connectable=0;recursiveResize=0;whiteSpace=wrap;html=1;fillColor=#CCCCCC;" vertex="1" parent="1">
          <mxGeometry x="408" y="435.5" width="152" height="29" as="geometry">
            <mxRectangle width="152" height="29" as="alternateBounds" />
          </mxGeometry>
        </mxCell>
        <mxCell id="6sqUFoTrAs0NfEia508A-63" value="" style="rounded=0;whiteSpace=wrap;html=1;" vertex="1" parent="1">
          <mxGeometry x="560" y="200" width="20" height="380" as="geometry" />
        </mxCell>
        <mxCell id="6sqUFoTrAs0NfEia508A-64" value="" style="rounded=0;whiteSpace=wrap;html=1;" vertex="1" parent="1">
          <mxGeometry x="100" y="560" width="460" height="20" as="geometry" />
        </mxCell>
        <mxCell id="6sqUFoTrAs0NfEia508A-65" value="" style="rounded=0;whiteSpace=wrap;html=1;fillColor=#FFFFFF;" vertex="1" parent="1">
          <mxGeometry x="100" y="560" width="160" height="20" as="geometry" />
        </mxCell>
        <mxCell id="6sqUFoTrAs0NfEia508A-66" value="" style="rounded=0;whiteSpace=wrap;html=1;" vertex="1" parent="1">
          <mxGeometry x="100" y="170" width="90" height="30" as="geometry" />
        </mxCell>
        <mxCell id="6sqUFoTrAs0NfEia508A-67" value="Visualisation" style="text;strokeColor=none;fillColor=none;html=1;fontSize=12;fontStyle=0;verticalAlign=middle;align=center;" vertex="1" parent="1">
          <mxGeometry x="100" y="165" width="90" height="40" as="geometry" />
        </mxCell>
        <mxCell id="6sqUFoTrAs0NfEia508A-72" value="" style="rounded=0;whiteSpace=wrap;html=1;" vertex="1" parent="1">
          <mxGeometry x="190" y="170" width="90" height="30" as="geometry" />
        </mxCell>
        <mxCell id="6sqUFoTrAs0NfEia508A-68" value="Manage" style="text;strokeColor=none;fillColor=none;html=1;fontSize=12;fontStyle=0;verticalAlign=middle;align=center;" vertex="1" parent="1">
          <mxGeometry x="195" y="170" width="80" height="30" as="geometry" />
        </mxCell>
        <mxCell id="6sqUFoTrAs0NfEia508A-73" value="Authorized as *name*" style="text;strokeColor=none;fillColor=none;html=1;fontSize=12;fontStyle=0;verticalAlign=middle;align=right;" vertex="1" parent="1">
          <mxGeometry x="580" y="165" width="185" height="40" as="geometry" />
        </mxCell>
        <mxCell id="6sqUFoTrAs0NfEia508A-74" value="MainWindow:" style="text;strokeColor=none;fillColor=none;html=1;fontSize=24;fontStyle=1;verticalAlign=middle;align=left;" vertex="1" parent="1">
          <mxGeometry x="100" y="90" width="670" height="40" as="geometry" />
        </mxCell>
      </root>
    </mxGraphModel>
  </diagram>
</mxfile>
